<svg xmlns="http://www.w3.org/2000/svg" viewBox="0 0 64 64"><defs><linearGradient id="g" x1="8" y1="5" x2="57" y2="60" gradientUnits="userSpaceOnUse"><stop stop-color="#9EA7FF"/><stop offset="1" stop-color="#5362E8"/></linearGradient><linearGradient id="f" x1="19" y1="21" x2="48" y2="51" gradientUnits="userSpaceOnUse"><stop stop-color="#FFF"/><stop offset="1" stop-color="#DCE1FF"/></linearGradient></defs><rect x="4" y="4" width="56" height="56" rx="15" fill="url(#g)"/><path d="M15 22.5a5 5 0 0 1 5-5h9l4.5 5H47a5 5 0 0 1 5 5v19a5 5 0 0 1-5 5H20a5 5 0 0 1-5-5z" fill="url(#f)"/><rect x="20" y="29" width="11" height="11" rx="3" fill="#6472EE"/><rect x="35" y="29" width="11" height="11" rx="3" fill="#8E98F8"/><rect x="20" y="43" width="26" height="3" rx="1.5" fill="#AAB2F8"/></svg>
