<svg xmlns="http://www.w3.org/2000/svg" viewBox="0 0 64 64"><defs><linearGradient id="folder" x1="11" y1="13" x2="54" y2="55" gradientUnits="userSpaceOnUse"><stop stop-color="#AAB2FF"/><stop offset=".48" stop-color="#7B86F5"/><stop offset="1" stop-color="#5362E8"/></linearGradient><linearGradient id="panel" x1="21" y1="28" x2="45" y2="49" gradientUnits="userSpaceOnUse"><stop stop-color="#FFF"/><stop offset="1" stop-color="#E6E9FF"/></linearGradient><filter id="shadow" x="5" y="8" width="54" height="52" filterUnits="userSpaceOnUse"><feDropShadow dx="0" dy="2" stdDeviation="2" flood-color="#263276" flood-opacity=".28"/></filter></defs><g filter="url(#shadow)"><path d="M8 21a7 7 0 0 1 7-7h12.1c1.7 0 3.3.7 4.5 1.9l3.7 3.9H49a7 7 0 0 1 7 7v21a8 8 0 0 1-8 8H16a8 8 0 0 1-8-8z" fill="url(#folder)"/><path d="M13 29a5 5 0 0 1 5-5h28a5 5 0 0 1 5 5v17a5 5 0 0 1-5 5H18a5 5 0 0 1-5-5z" fill="url(#panel)"/></g><rect x="18" y="29" width="11" height="8" rx="2.5" fill="#6673EC"/><rect x="35" y="29" width="11" height="8" rx="2.5" fill="#919AF8"/><rect x="18" y="41" width="11" height="6" rx="2.3" fill="#919AF8"/><rect x="35" y="41" width="11" height="6" rx="2.3" fill="#6673EC"/></svg>
